<svg width="20" height="20" viewBox="0 0 20 20" fill="none" xmlns="http://www.w3.org/2000/svg">
<path d="M16.7058 13.7275C15.7025 12.5 14.995 11.875 14.995 8.49C14.995 5.39 13.4117 4.28667 12.1092 3.75C12.0191 3.71232 11.938 3.65613 11.8711 3.58506C11.8042 3.51399 11.753 3.42965 11.7208 3.3375C11.4917 2.56 10.8517 1.875 10 1.875C9.14833 1.875 8.5075 2.56083 8.28083 3.33833C8.24893 3.43053 8.19781 3.5149 8.13087 3.58587C8.06392 3.65683 7.98268 3.71278 7.8925 3.75C6.58833 4.2875 5.00666 5.3875 5.00666 8.49C5.005 11.875 4.29666 12.5 3.29333 13.7275C2.8775 14.2358 3.24166 15 3.96833 15H16.035C16.7575 15 17.1192 14.2333 16.7058 13.7275Z" stroke="#8A8A8A" stroke-width="1.25" stroke-linecap="round" stroke-linejoin="round"/>
<path d="M12.5 15V15.625C12.5 16.288 12.2366 16.9239 11.7678 17.3928C11.2989 17.8616 10.663 18.125 10 18.125C9.33696 18.125 8.70107 17.8616 8.23223 17.3928C7.76339 16.9239 7.5 16.288 7.5 15.625V15" stroke="#8A8A8A" stroke-width="1.25" stroke-linecap="round" stroke-linejoin="round"/>
</svg>
