<svg width="20" height="21" viewBox="0 0 20 21" fill="none" xmlns="http://www.w3.org/2000/svg">
<path d="M6.40625 1.75C5.86753 1.75 5.35087 1.96401 4.96994 2.34494C4.58901 2.72587 4.375 3.24253 4.375 3.78125V17.2188C4.375 17.7575 4.58901 18.2741 4.96994 18.6551C5.35087 19.036 5.86753 19.25 6.40625 19.25H13.5938C14.1325 19.25 14.6491 19.036 15.0301 18.6551C15.411 18.2741 15.625 17.7575 15.625 17.2188V3.78125C15.625 3.24253 15.411 2.72587 15.0301 2.34494C14.6491 1.96401 14.1325 1.75 13.5938 1.75H6.40625ZM5.625 3.78125C5.625 3.35 5.975 3 6.40625 3H13.5938C14.025 3 14.375 3.35 14.375 3.78125V17.2188C14.375 17.65 14.025 18 13.5938 18H6.40625C5.975 18 5.625 17.65 5.625 17.2188V3.78125ZM8.75 15.5C8.58424 15.5 8.42527 15.5658 8.30806 15.6831C8.19085 15.8003 8.125 15.9592 8.125 16.125C8.125 16.2908 8.19085 16.4497 8.30806 16.5669C8.42527 16.6842 8.58424 16.75 8.75 16.75H11.25C11.4158 16.75 11.5747 16.6842 11.6919 16.5669C11.8092 16.4497 11.875 16.2908 11.875 16.125C11.875 15.9592 11.8092 15.8003 11.6919 15.6831C11.5747 15.5658 11.4158 15.5 11.25 15.5H8.75Z" fill="#8A8A8A"/>
</svg>
