<svg width="20" height="20" viewBox="0 0 20 20" fill="none" xmlns="http://www.w3.org/2000/svg">
<path d="M10.2466 7.5125C9.91687 7.47408 9.58277 7.50172 9.26381 7.59381C8.94486 7.6859 8.64744 7.84059 8.38892 8.04887C8.13039 8.25714 7.91593 8.51481 7.75806 8.80685C7.60019 9.0989 7.50207 9.41946 7.46942 9.74983C7.43677 10.0802 7.47025 10.4138 7.5679 10.7311C7.66555 11.0484 7.82542 11.343 8.03818 11.5979C8.25093 11.8527 8.51232 12.0626 8.80708 12.2154C9.10183 12.3681 9.42406 12.4606 9.75495 12.4875C10.4083 12.5406 11.0563 12.3349 11.5595 11.9148C12.0626 11.4948 12.3807 10.8939 12.4452 10.2416C12.5096 9.58928 12.3153 8.93776 11.9041 8.42732C11.4929 7.91688 10.8977 7.58836 10.2466 7.5125ZM16.265 10C16.2633 10.2719 16.2432 10.5433 16.205 10.8125L17.9716 12.1975C18.0483 12.2613 18.0998 12.3502 18.1172 12.4485C18.1346 12.5467 18.1167 12.6479 18.0666 12.7342L16.3958 15.625C16.345 15.7103 16.2658 15.775 16.1721 15.8078C16.0784 15.8406 15.9761 15.8393 15.8833 15.8042L14.1291 15.0983C14.0324 15.0597 13.9277 15.0457 13.8242 15.0576C13.7208 15.0695 13.622 15.107 13.5366 15.1667C13.2689 15.3511 12.9875 15.5149 12.695 15.6567C12.6031 15.7014 12.5236 15.768 12.4636 15.8507C12.4036 15.9334 12.3648 16.0296 12.3508 16.1308L12.0875 18.0008C12.0703 18.0996 12.0194 18.1893 11.9434 18.2547C11.8673 18.32 11.771 18.357 11.6708 18.3592H8.32912C8.23058 18.3576 8.13551 18.3225 8.05961 18.2596C7.98371 18.1967 7.93151 18.1099 7.91162 18.0133L7.64912 16.145C7.63441 16.0426 7.59461 15.9454 7.53325 15.8621C7.4719 15.7788 7.39089 15.7119 7.29745 15.6675C7.00531 15.5263 6.72496 15.3619 6.45912 15.1758C6.37402 15.1167 6.27554 15.0796 6.17254 15.068C6.06955 15.0563 5.96528 15.0705 5.86912 15.1092L4.11495 15.8158C4.02199 15.8512 3.91954 15.8526 3.82564 15.8198C3.73174 15.787 3.65241 15.7222 3.60162 15.6367L1.93329 12.7458C1.88306 12.6596 1.86504 12.5584 1.88243 12.4601C1.89983 12.3618 1.95151 12.2729 2.02829 12.2092L3.52162 11.0375C3.60322 10.9725 3.6673 10.8881 3.70805 10.7921C3.7488 10.6961 3.76492 10.5914 3.75495 10.4875C3.7254 10.1646 3.7254 9.8396 3.75495 9.51667C3.76383 9.41332 3.74684 9.30939 3.70553 9.21424C3.66421 9.1191 3.59986 9.03573 3.51829 8.97167L2.02579 7.8C1.95017 7.73595 1.89948 7.64735 1.88257 7.54971C1.86566 7.45206 1.88361 7.35158 1.93329 7.26583L3.60412 4.375C3.65491 4.28949 3.73424 4.22465 3.82814 4.19187C3.92204 4.1591 4.02449 4.1605 4.11745 4.19583L5.87162 4.90167C5.96821 4.94003 6.07281 4.95387 6.17605 4.94195C6.2793 4.93002 6.37798 4.89271 6.46329 4.83333C6.73107 4.64923 7.01243 4.4857 7.30495 4.34417C7.39709 4.29948 7.47679 4.23275 7.53697 4.14989C7.59715 4.06703 7.63596 3.97061 7.64995 3.86917L7.91245 2C7.92977 1.90131 7.98075 1.81167 8.05672 1.74633C8.13269 1.681 8.22895 1.64401 8.32912 1.64167H11.6708C11.7696 1.64309 11.8649 1.67825 11.941 1.7413C12.0171 1.80435 12.0694 1.89151 12.0891 1.98833L12.3516 3.85583C12.3662 3.95816 12.4059 4.0553 12.4671 4.1386C12.5283 4.2219 12.6092 4.2888 12.7025 4.33333C12.995 4.475 13.275 4.63833 13.5408 4.825C13.626 4.8843 13.7246 4.92145 13.8278 4.93309C13.9309 4.94473 14.0353 4.93049 14.1316 4.89167L15.885 4.185C15.9779 4.14967 16.0804 4.14827 16.1743 4.18104C16.2682 4.21381 16.3475 4.27866 16.3983 4.36417L18.0691 7.255C18.1193 7.34132 18.1371 7.44263 18.1196 7.5409C18.102 7.63917 18.0502 7.72803 17.9733 7.79167L16.4808 8.96333C16.3986 9.02798 16.3339 9.11217 16.2925 9.20824C16.2512 9.30431 16.2345 9.40919 16.2441 9.51333C16.2575 9.67583 16.2658 9.83833 16.2658 10.0008L16.265 10Z" stroke="#8A8A8A" stroke-width="1.25" stroke-linecap="round" stroke-linejoin="round"/>
</svg>
