<svg width="40" height="40" viewBox="0 0 40 40" fill="none" xmlns="http://www.w3.org/2000/svg">
<rect x="-0.5" y="0.5" width="39" height="39" rx="19.5" transform="matrix(-1 0 0 1 39 0)" fill="white"/>
<rect x="-0.5" y="0.5" width="39" height="39" rx="19.5" transform="matrix(-1 0 0 1 39 0)" stroke="#E9E9E9"/>
<path d="M13.3333 25C13.1209 25.0002 12.9166 25.0816 12.7622 25.2274C12.6077 25.3732 12.5148 25.5725 12.5024 25.7845C12.4899 25.9965 12.5589 26.2053 12.6952 26.3682C12.8315 26.5311 13.0249 26.6357 13.2358 26.6608L13.3333 26.6667H26.6667C26.8791 26.6664 27.0834 26.5851 27.2378 26.4393C27.3923 26.2935 27.4852 26.0942 27.4976 25.8822C27.5101 25.6701 27.4411 25.4614 27.3048 25.2985C27.1685 25.1356 26.9751 25.0309 26.7642 25.0058L26.6667 25H13.3333ZM13.3333 19.1667C13.1123 19.1667 12.9004 19.2545 12.7441 19.4107C12.5878 19.567 12.5 19.779 12.5 20C12.5 20.221 12.5878 20.433 12.7441 20.5893C12.9004 20.7455 13.1123 20.8333 13.3333 20.8333H26.6667C26.8877 20.8333 27.0996 20.7455 27.2559 20.5893C27.4122 20.433 27.5 20.221 27.5 20C27.5 19.779 27.4122 19.567 27.2559 19.4107C27.0996 19.2545 26.8877 19.1667 26.6667 19.1667H13.3333ZM13.3333 13.3333C13.1123 13.3333 12.9004 13.4211 12.7441 13.5774C12.5878 13.7337 12.5 13.9457 12.5 14.1667C12.5 14.3877 12.5878 14.5996 12.7441 14.7559C12.9004 14.9122 13.1123 15 13.3333 15H26.6667C26.8877 15 27.0996 14.9122 27.2559 14.7559C27.4122 14.5996 27.5 14.3877 27.5 14.1667C27.5 13.9457 27.4122 13.7337 27.2559 13.5774C27.0996 13.4211 26.8877 13.3333 26.6667 13.3333H13.3333Z" fill="#8A8A8A"/>
</svg>
