<svg width="20" height="20" viewBox="0 0 20 20" fill="none" xmlns="http://www.w3.org/2000/svg">
<path fill-rule="evenodd" clip-rule="evenodd" d="M0.52 5.823C0 6.77 0 7.915 0 10.203V11.725C0 15.625 -1.19209e-07 17.576 1.172 18.788C2.344 20 4.229 20 8 20H12C15.771 20 17.657 20 18.828 18.788C19.999 17.576 20 15.626 20 11.725V10.204C20 7.915 20 6.771 19.48 5.823C18.962 4.874 18.013 4.286 16.116 3.108L14.116 1.867C12.111 0.622 11.108 0 10 0C8.892 0 7.89 0.622 5.884 1.867L3.884 3.108C1.987 4.286 1.039 4.874 0.52 5.823ZM7.446 13.398C7.36715 13.3366 7.27682 13.2916 7.18034 13.2657C7.08386 13.2397 6.98316 13.2333 6.88416 13.2468C6.78515 13.2603 6.68984 13.2934 6.60382 13.3442C6.51781 13.3951 6.44281 13.4626 6.38324 13.5428C6.32368 13.623 6.28074 13.7143 6.25696 13.8114C6.23317 13.9084 6.22902 14.0092 6.24474 14.1079C6.26046 14.2066 6.29574 14.3011 6.3485 14.386C6.40127 14.4708 6.47045 14.5443 6.552 14.602C7.54768 15.3461 8.75702 15.7487 10 15.75C11.2426 15.7485 12.4516 15.3459 13.447 14.602C13.5285 14.5443 13.5977 14.4708 13.6505 14.386C13.7033 14.3011 13.7385 14.2066 13.7543 14.1079C13.77 14.0092 13.7658 13.9084 13.742 13.8114C13.7183 13.7143 13.6753 13.623 13.6158 13.5428C13.5562 13.4626 13.4812 13.3951 13.3952 13.3442C13.3092 13.2934 13.2138 13.2603 13.1148 13.2468C13.0158 13.2333 12.9151 13.2397 12.8187 13.2657C12.7222 13.2916 12.6319 13.3366 12.553 13.398C11.8161 13.9498 10.9206 14.2486 10 14.25C9.07941 14.2486 8.18291 13.9498 7.446 13.398Z" fill="#5A5DFF"/>
</svg>
