<svg width="20" height="21" viewBox="0 0 20 21" fill="none" xmlns="http://www.w3.org/2000/svg">
<path d="M15.7516 2.58334H4.24827C4.13228 2.58335 4.01756 2.60758 3.91147 2.65448C3.80537 2.70137 3.71024 2.7699 3.63215 2.85567C3.55406 2.94145 3.49474 3.04258 3.45799 3.1526C3.42123 3.26262 3.40784 3.3791 3.41869 3.49459L4.53869 15.4388C4.55225 15.5841 4.60377 15.7234 4.68809 15.8426C4.7724 15.9618 4.88655 16.0567 5.01911 16.1179L9.65077 18.2554C9.76024 18.3059 9.87937 18.3321 9.99994 18.3321C10.1205 18.3321 10.2396 18.3059 10.3491 18.2554L14.9808 16.1179C15.1134 16.0568 15.2276 15.9618 15.312 15.8426C15.3964 15.7235 15.448 15.5842 15.4616 15.4388L16.5812 3.49459C16.592 3.3791 16.5787 3.26262 16.5419 3.1526C16.5051 3.04258 16.4458 2.94145 16.3677 2.85567C16.2896 2.7699 16.1945 2.70137 16.0884 2.65448C15.9823 2.60758 15.8676 2.58335 15.7516 2.58334Z" stroke="#8A8A8A" stroke-width="1.66667"/>
<path d="M13.3333 5.5H6.66663L7.08329 9.25H12.9166L12.5 13.8333L9.99996 15.0833L7.49996 13.8333L7.29163 11.75" stroke="#8A8A8A" stroke-width="1.66667" stroke-linecap="round" stroke-linejoin="round"/>
</svg>
