<svg width="20" height="21" viewBox="0 0 20 21" fill="none" xmlns="http://www.w3.org/2000/svg">
<path d="M10.0001 6.75H6.25008M6.25008 6.75H4.98175C4.30925 6.75 3.62091 6.90666 3.20675 7.43666C2.76508 8.0025 2.29175 8.96583 2.29175 10.5C2.29175 12.0333 2.76508 12.9975 3.20675 13.5633C3.62091 14.0933 4.30925 14.25 4.98175 14.25H6.25008M6.25008 6.75V5.48166C6.25008 4.80916 6.40675 4.12083 6.93675 3.70666C7.50258 3.265 8.46591 2.79166 10.0001 2.79166C11.5334 2.79166 12.4976 3.265 13.0634 3.70666C13.5934 4.12083 13.7501 4.80916 13.7501 5.48166V6.75M10.0001 14.25H13.7501M13.7501 14.25H15.0176C15.6901 14.25 16.3792 14.0933 16.7926 13.5633C17.2351 12.9975 17.7084 12.0342 17.7084 10.5C17.7084 8.96666 17.2351 8.0025 16.7934 7.43666C16.3792 6.90666 15.6901 6.75 15.0184 6.75H13.7501M13.7501 14.25V15.5175C13.7501 16.19 13.5934 16.8792 13.0634 17.2925C12.4976 17.735 11.5342 18.2083 10.0001 18.2083C8.46675 18.2083 7.50258 17.735 6.93675 17.2933C6.40675 16.8792 6.25008 16.19 6.25008 15.5183V14.25M13.7501 6.75V8.83333C13.7501 9.27536 13.5745 9.69928 13.2619 10.0118C12.9494 10.3244 12.5254 10.5 12.0834 10.5H7.91675C7.47472 10.5 7.0508 10.6756 6.73824 10.9882C6.42568 11.3007 6.25008 11.7246 6.25008 12.1667V14.25" stroke="#8A8A8A" stroke-width="1.25" stroke-linecap="round" stroke-linejoin="round"/>
<path d="M12.5 15.9167C12.5 16.0824 12.4342 16.2414 12.3169 16.3586C12.1997 16.4758 12.0408 16.5417 11.875 16.5417C11.7092 16.5417 11.5503 16.4758 11.4331 16.3586C11.3158 16.2414 11.25 16.0824 11.25 15.9167C11.25 15.7509 11.3158 15.5919 11.4331 15.4747C11.5503 15.3575 11.7092 15.2917 11.875 15.2917C12.0408 15.2917 12.1997 15.3575 12.3169 15.4747C12.4342 15.5919 12.5 15.7509 12.5 15.9167ZM7.5 5.08333C7.5 4.91757 7.56585 4.7586 7.68306 4.64139C7.80027 4.52418 7.95924 4.45833 8.125 4.45833C8.29076 4.45833 8.44973 4.52418 8.56694 4.64139C8.68415 4.7586 8.75 4.91757 8.75 5.08333C8.75 5.24909 8.68415 5.40806 8.56694 5.52527C8.44973 5.64248 8.29076 5.70833 8.125 5.70833C7.95924 5.70833 7.80027 5.64248 7.68306 5.52527C7.56585 5.40806 7.5 5.24909 7.5 5.08333Z" fill="#8A8A8A"/>
</svg>
