<svg width="18" height="18" viewBox="0 0 18 18" fill="none" xmlns="http://www.w3.org/2000/svg">
<path d="M17 17L12.95 12.95M12.95 12.95C14.0928 11.8041 14.8034 10.2977 14.961 8.68703C15.1185 7.07633 14.7132 5.4608 13.8141 4.11519C12.9149 2.76958 11.5774 1.77698 10.029 1.30622C8.48063 0.835454 6.81697 0.915591 5.32099 1.533C4.36507 1.92941 3.50894 2.53285 2.81423 3.29985C2.11952 4.06686 1.60351 4.97836 1.30335 5.96872C1.0032 6.95909 0.926363 8.00369 1.07838 9.02732C1.23039 10.0509 1.60748 11.0281 2.18249 11.8885C2.75749 12.7489 3.51612 13.4711 4.40374 14.0032C5.29137 14.5352 6.28591 14.8638 7.31577 14.9653C8.34563 15.0668 9.38519 14.9387 10.3596 14.5902C11.334 14.2418 12.2191 13.6816 12.951 12.95H12.95Z" stroke="#8A8A8A" stroke-width="2" stroke-linecap="round" stroke-linejoin="round"/>
</svg>
