<svg width="20" height="21" viewBox="0 0 20 21" fill="none" xmlns="http://www.w3.org/2000/svg">
<path d="M10 7.7225H7.2225M10 7.7225V2.16666H7.2225C6.48575 2.16666 5.77917 2.45934 5.25821 2.9803C4.73725 3.50126 4.44458 4.20783 4.44458 4.94458C4.44458 5.68133 4.73725 6.3879 5.25821 6.90886C5.77917 7.42982 6.48575 7.7225 7.2225 7.7225M10 7.7225V13.2775H7.2225M10 7.7225H12.7775M7.2225 7.7225C6.48586 7.7225 5.77939 8.01513 5.25851 8.53601C4.73763 9.05689 4.445 9.76336 4.445 10.5C4.445 11.2366 4.73763 11.9431 5.25851 12.464C5.77939 12.9849 6.48586 13.2775 7.2225 13.2775M7.2225 13.2775C6.67319 13.2775 6.13623 13.4404 5.67949 13.7455C5.22275 14.0507 4.86675 14.4844 4.6565 14.9919C4.44625 15.4994 4.3912 16.0578 4.4983 16.5966C4.60541 17.1353 4.86986 17.6302 5.25821 18.0187C5.64657 18.4072 6.1414 18.6718 6.68012 18.779C7.21885 18.8863 7.77729 18.8314 8.28482 18.6213C8.79236 18.4112 9.2262 18.0553 9.5315 17.5987C9.83679 17.142 9.99983 16.6051 10 16.0558M12.7775 7.7225C12.0409 7.7225 11.3344 8.01513 10.8135 8.53601C10.2926 9.05689 10 9.76336 10 10.5C10 11.2366 10.2926 11.9431 10.8135 12.464C11.3344 12.9849 12.0409 13.2775 12.7775 13.2775C13.5141 13.2775 14.2206 12.9849 14.7415 12.464C15.2624 11.9431 15.555 11.2366 15.555 10.5C15.555 9.76336 15.2624 9.05689 14.7415 8.53601C14.2206 8.01513 13.5141 7.7225 12.7775 7.7225ZM12.7775 7.7225C13.5142 7.7225 14.2208 7.42982 14.7418 6.90886C15.2627 6.3879 15.5554 5.68133 15.5554 4.94458C15.5554 4.20783 15.2627 3.50126 14.7418 2.9803C14.2208 2.45934 13.5142 2.16666 12.7775 2.16666" stroke="#8A8A8A" stroke-width="1.25" stroke-linecap="round" stroke-linejoin="round"/>
</svg>
